<mxfile host="65bd71144e">
    <diagram id="Ue2m0nlykGMILfuQsxM4" name="Page-1">
        <mxGraphModel dx="954" dy="1131" grid="0" gridSize="10" guides="1" tooltips="1" connect="1" arrows="1" fold="1" page="0" pageScale="1" pageWidth="850" pageHeight="1100" math="0" shadow="0">
            <root>
                <mxCell id="0"/>
                <mxCell id="1" parent="0"/>
                <mxCell id="2" value="HUMAN RESOURCE MANAGER" style="swimlane;whiteSpace=wrap;html=1;" parent="1" vertex="1">
                    <mxGeometry x="89" y="-292" width="429" height="1496" as="geometry"/>
                </mxCell>
                <mxCell id="4" value="" style="ellipse;fillColor=strokeColor;" parent="2" vertex="1">
                    <mxGeometry x="192" y="94" width="30" height="30" as="geometry"/>
                </mxCell>
                <mxCell id="5" value="" style="ellipse;html=1;shape=endState;fillColor=strokeColor;" parent="2" vertex="1">
                    <mxGeometry x="192" y="1425" width="30" height="30" as="geometry"/>
                </mxCell>
                <mxCell id="9" value="INPUT&lt;br&gt;NAME" style="rounded=1;whiteSpace=wrap;html=1;" parent="2" vertex="1">
                    <mxGeometry x="147" y="178" width="120" height="60" as="geometry"/>
                </mxCell>
                <mxCell id="16" value="INPUT AUTOMATED&lt;br&gt;CALCULATION" style="rounded=1;whiteSpace=wrap;html=1;" parent="2" vertex="1">
                    <mxGeometry x="137" y="370" width="140" height="60" as="geometry"/>
                </mxCell>
                <mxCell id="60" style="edgeStyle=none;html=1;exitX=0.5;exitY=1;exitDx=0;exitDy=0;" edge="1" parent="2" source="23" target="29">
                    <mxGeometry relative="1" as="geometry"/>
                </mxCell>
                <mxCell id="23" value="SET AMOUNT&lt;br&gt;WRITABLE STATE" style="rounded=1;whiteSpace=wrap;html=1;" parent="2" vertex="1">
                    <mxGeometry x="147" y="575" width="120" height="60" as="geometry"/>
                </mxCell>
                <mxCell id="61" style="edgeStyle=none;html=1;exitX=0.5;exitY=1;exitDx=0;exitDy=0;entryX=0.5;entryY=0;entryDx=0;entryDy=0;" edge="1" parent="2" source="29" target="33">
                    <mxGeometry relative="1" as="geometry"/>
                </mxCell>
                <mxCell id="29" value="SET ACTIVE&lt;br&gt;STATE" style="rounded=1;whiteSpace=wrap;html=1;" parent="2" vertex="1">
                    <mxGeometry x="147" y="675" width="120" height="54" as="geometry"/>
                </mxCell>
                <mxCell id="62" style="edgeStyle=none;html=1;exitX=0.5;exitY=1;exitDx=0;exitDy=0;entryX=0.5;entryY=0;entryDx=0;entryDy=0;" edge="1" parent="2" source="33" target="39">
                    <mxGeometry relative="1" as="geometry"/>
                </mxCell>
                <mxCell id="33" value="SELECT AFFECTED&lt;br&gt;EMPLOYEMENT STATUS" style="rounded=1;whiteSpace=wrap;html=1;" parent="2" vertex="1">
                    <mxGeometry x="120.5" y="765" width="173" height="60" as="geometry"/>
                </mxCell>
                <mxCell id="63" style="edgeStyle=none;html=1;exitX=0.5;exitY=1;exitDx=0;exitDy=0;entryX=0.5;entryY=0;entryDx=0;entryDy=0;" edge="1" parent="2" source="39" target="41">
                    <mxGeometry relative="1" as="geometry"/>
                </mxCell>
                <mxCell id="39" value="SELECT AFFECTED&lt;br&gt;DEPARTMENTS" style="rounded=1;whiteSpace=wrap;html=1;" parent="2" vertex="1">
                    <mxGeometry x="132.75" y="860" width="148.5" height="60" as="geometry"/>
                </mxCell>
                <mxCell id="41" value="SELECT AFFECTED&lt;br&gt;POSITIONS" style="rounded=1;whiteSpace=wrap;html=1;" parent="2" vertex="1">
                    <mxGeometry x="131.25" y="957" width="151.5" height="60" as="geometry"/>
                </mxCell>
                <mxCell id="48" value="SELECT AFFECTED EMPLOYEES" style="rounded=1;whiteSpace=wrap;html=1;" parent="2" vertex="1">
                    <mxGeometry x="133.25" y="1104.5" width="148" height="60" as="geometry"/>
                </mxCell>
                <mxCell id="53" value="CLICK SUBMIT" style="rounded=1;whiteSpace=wrap;html=1;" parent="2" vertex="1">
                    <mxGeometry x="147" y="1252" width="120" height="60" as="geometry"/>
                </mxCell>
                <mxCell id="3" value="SYSTEM" style="swimlane;whiteSpace=wrap;html=1;" parent="1" vertex="1">
                    <mxGeometry x="518" y="-292" width="429" height="1496" as="geometry"/>
                </mxCell>
                <mxCell id="12" value="IS NAME&lt;br&gt;EMPTY?" style="rhombus;whiteSpace=wrap;html=1;" parent="3" vertex="1">
                    <mxGeometry x="156.5" y="223" width="116" height="116" as="geometry"/>
                </mxCell>
                <mxCell id="15" value="YES" style="text;html=1;align=center;verticalAlign=middle;resizable=0;points=[];autosize=1;strokeColor=none;fillColor=none;" parent="3" vertex="1">
                    <mxGeometry x="107" y="255" width="42" height="26" as="geometry"/>
                </mxCell>
                <mxCell id="17" value="IS CALCULATION&lt;br&gt;INVALID?" style="rhombus;whiteSpace=wrap;html=1;" parent="3" vertex="1">
                    <mxGeometry x="158" y="423" width="119" height="119" as="geometry"/>
                </mxCell>
                <mxCell id="46" value="IS ATLEAST ONE&lt;br&gt;EMPLOYMENT STATUS&lt;br&gt;SELECTED?" style="rhombus;whiteSpace=wrap;html=1;" parent="3" vertex="1">
                    <mxGeometry x="182" y="630" width="161" height="161" as="geometry"/>
                </mxCell>
                <mxCell id="55" value="DISPLAY&lt;br&gt;&quot;EARNING CREATED&quot;" style="rounded=1;whiteSpace=wrap;html=1;" parent="3" vertex="1">
                    <mxGeometry x="137.5" y="1347" width="154" height="60" as="geometry"/>
                </mxCell>
                <mxCell id="58" value="YES" style="text;html=1;align=center;verticalAlign=middle;resizable=0;points=[];autosize=1;strokeColor=none;fillColor=none;" parent="3" vertex="1">
                    <mxGeometry x="327" y="795" width="42" height="26" as="geometry"/>
                </mxCell>
                <mxCell id="50" value="NO" style="text;html=1;align=center;verticalAlign=middle;resizable=0;points=[];autosize=1;strokeColor=none;fillColor=none;" parent="3" vertex="1">
                    <mxGeometry x="218" y="795" width="36" height="26" as="geometry"/>
                </mxCell>
                <mxCell id="10" style="edgeStyle=orthogonalEdgeStyle;html=1;exitX=0.5;exitY=1;exitDx=0;exitDy=0;entryX=0.5;entryY=0;entryDx=0;entryDy=0;rounded=0;" parent="1" source="6" target="9" edge="1">
                    <mxGeometry relative="1" as="geometry"/>
                </mxCell>
                <mxCell id="6" value="DISPLAY&lt;br&gt;PAYHEAD&lt;br&gt;CREATION FORM" style="rounded=1;whiteSpace=wrap;html=1;" parent="1" vertex="1">
                    <mxGeometry x="671" y="-213" width="120" height="60" as="geometry"/>
                </mxCell>
                <mxCell id="7" style="edgeStyle=none;html=1;exitX=1;exitY=0.5;exitDx=0;exitDy=0;entryX=0;entryY=0.5;entryDx=0;entryDy=0;" parent="1" source="4" target="6" edge="1">
                    <mxGeometry relative="1" as="geometry"/>
                </mxCell>
                <mxCell id="13" style="edgeStyle=orthogonalEdgeStyle;rounded=0;html=1;exitX=1;exitY=0.5;exitDx=0;exitDy=0;entryX=0.5;entryY=0;entryDx=0;entryDy=0;" parent="1" source="9" target="12" edge="1">
                    <mxGeometry relative="1" as="geometry"/>
                </mxCell>
                <mxCell id="14" style="edgeStyle=orthogonalEdgeStyle;rounded=0;html=1;exitX=0;exitY=0.5;exitDx=0;exitDy=0;entryX=0.5;entryY=1;entryDx=0;entryDy=0;" parent="1" source="12" target="9" edge="1">
                    <mxGeometry relative="1" as="geometry"/>
                </mxCell>
                <mxCell id="18" style="edgeStyle=orthogonalEdgeStyle;rounded=0;html=1;exitX=1;exitY=0.5;exitDx=0;exitDy=0;entryX=0.5;entryY=0;entryDx=0;entryDy=0;" parent="1" source="16" target="17" edge="1">
                    <mxGeometry relative="1" as="geometry"/>
                </mxCell>
                <mxCell id="19" style="edgeStyle=orthogonalEdgeStyle;rounded=0;html=1;entryX=0.5;entryY=0;entryDx=0;entryDy=0;exitX=1.019;exitY=0.498;exitDx=0;exitDy=0;exitPerimeter=0;" parent="1" source="12" target="16" edge="1">
                    <mxGeometry relative="1" as="geometry">
                        <mxPoint x="789" y="-8" as="sourcePoint"/>
                        <Array as="points">
                            <mxPoint x="858" y="-11"/>
                            <mxPoint x="858" y="60"/>
                            <mxPoint x="296" y="60"/>
                        </Array>
                    </mxGeometry>
                </mxCell>
                <mxCell id="20" value="NO" style="text;html=1;align=center;verticalAlign=middle;resizable=0;points=[];autosize=1;strokeColor=none;fillColor=none;" parent="1" vertex="1">
                    <mxGeometry x="794" y="-39" width="36" height="26" as="geometry"/>
                </mxCell>
                <mxCell id="21" style="edgeStyle=orthogonalEdgeStyle;rounded=0;html=1;exitX=0;exitY=0.5;exitDx=0;exitDy=0;entryX=0.5;entryY=1;entryDx=0;entryDy=0;" parent="1" source="17" target="16" edge="1">
                    <mxGeometry relative="1" as="geometry"/>
                </mxCell>
                <mxCell id="22" value="YES" style="text;html=1;align=center;verticalAlign=middle;resizable=0;points=[];autosize=1;strokeColor=none;fillColor=none;" parent="1" vertex="1">
                    <mxGeometry x="631" y="162" width="42" height="26" as="geometry"/>
                </mxCell>
                <mxCell id="24" style="edgeStyle=orthogonalEdgeStyle;rounded=0;html=1;exitX=1;exitY=0.5;exitDx=0;exitDy=0;entryX=0.5;entryY=0;entryDx=0;entryDy=0;" parent="1" source="17" target="23" edge="1">
                    <mxGeometry relative="1" as="geometry">
                        <Array as="points">
                            <mxPoint x="857" y="191"/>
                            <mxPoint x="857" y="261"/>
                            <mxPoint x="296" y="261"/>
                        </Array>
                    </mxGeometry>
                </mxCell>
                <mxCell id="26" value="NO" style="text;html=1;align=center;verticalAlign=middle;resizable=0;points=[];autosize=1;strokeColor=none;fillColor=none;" parent="1" vertex="1">
                    <mxGeometry x="798" y="162" width="36" height="26" as="geometry"/>
                </mxCell>
                <mxCell id="49" style="edgeStyle=orthogonalEdgeStyle;html=1;exitX=0.5;exitY=1;exitDx=0;exitDy=0;entryX=1;entryY=0.5;entryDx=0;entryDy=0;rounded=0;" parent="1" source="46" target="48" edge="1">
                    <mxGeometry relative="1" as="geometry">
                        <Array as="points">
                            <mxPoint x="781" y="843"/>
                        </Array>
                    </mxGeometry>
                </mxCell>
                <mxCell id="56" style="edgeStyle=orthogonalEdgeStyle;rounded=0;html=1;exitX=1;exitY=0.5;exitDx=0;exitDy=0;entryX=0;entryY=0.5;entryDx=0;entryDy=0;" parent="1" source="53" target="55" edge="1">
                    <mxGeometry relative="1" as="geometry">
                        <Array as="points">
                            <mxPoint x="592" y="990"/>
                            <mxPoint x="592" y="1085"/>
                        </Array>
                    </mxGeometry>
                </mxCell>
                <mxCell id="59" style="edgeStyle=orthogonalEdgeStyle;rounded=0;html=1;exitX=0.5;exitY=1;exitDx=0;exitDy=0;entryX=1;entryY=0.5;entryDx=0;entryDy=0;" parent="1" source="55" target="5" edge="1">
                    <mxGeometry relative="1" as="geometry"/>
                </mxCell>
                <mxCell id="64" style="edgeStyle=orthogonalEdgeStyle;html=1;exitX=1;exitY=0.5;exitDx=0;exitDy=0;entryX=0.5;entryY=0;entryDx=0;entryDy=0;rounded=0;" edge="1" parent="1" source="41" target="46">
                    <mxGeometry relative="1" as="geometry">
                        <Array as="points">
                            <mxPoint x="469" y="695"/>
                            <mxPoint x="469" y="302"/>
                            <mxPoint x="780" y="302"/>
                        </Array>
                    </mxGeometry>
                </mxCell>
                <mxCell id="65" style="edgeStyle=orthogonalEdgeStyle;rounded=0;html=1;exitX=1;exitY=0.5;exitDx=0;exitDy=0;entryX=0.5;entryY=0;entryDx=0;entryDy=0;" edge="1" parent="1" source="46" target="53">
                    <mxGeometry relative="1" as="geometry">
                        <Array as="points">
                            <mxPoint x="892" y="419"/>
                            <mxPoint x="892" y="941"/>
                            <mxPoint x="296" y="941"/>
                        </Array>
                    </mxGeometry>
                </mxCell>
            </root>
        </mxGraphModel>
    </diagram>
</mxfile>